<svg xmlns="http://www.w3.org/2000/svg" width="1600" height="1200" viewBox="0 0 1600 1200" version="1.1"><path d="M 803 316.023 C 742.013 324.456, 692.528 365.127, 666.758 428 C 659.894 444.745, 655.470 459.996, 651.819 479.500 C 649.843 490.052, 649.567 494.818, 649.536 519 C 649.506 541.701, 649.817 548.071, 651.316 555.500 C 657.226 584.800, 668.642 617.529, 686.174 655.441 L 694.008 672.382 691.628 674.941 C 687.325 679.566, 676.966 694.187, 672.158 702.419 C 647.168 745.213, 641.703 787.099, 656.885 819.496 C 671.855 851.441, 701.807 873.437, 742.030 882.023 C 755.237 884.843, 781.413 885.821, 795.721 884.030 C 833.930 879.247, 867.068 862.504, 894 834.376 C 922.797 804.300, 942.062 763.468, 949.616 716.500 C 951.763 703.146, 952.579 668.705, 951.043 656.192 C 947.621 628.298, 936.443 593.416, 916.889 549.606 L 907.117 527.711 913.430 519.606 C 927.099 502.056, 938.726 480.919, 944.922 462.362 C 954.552 433.515, 954.478 404.749, 944.716 382.223 C 933.428 356.175, 908.931 334.292, 879 323.520 C 862.405 317.548, 852.172 315.869, 830 315.482 C 818.725 315.286, 806.575 315.529, 803 316.023" stroke="none" fill="#1cb7fa" fill-rule="evenodd"/></svg>