<svg xmlns="http://www.w3.org/2000/svg" width="2000" height="2000" viewBox="0 0 2000 2000" version="1.1"><path d="M 1182.500 406.479 C 1181.950 406.655, 1178.125 407.574, 1174 408.521 C 1158.882 411.991, 1142.175 420.808, 1131.654 430.867 C 1128.989 433.415, 962.939 610.454, 762.654 824.286 C 484.742 1120.997, 397.155 1215.091, 392.822 1221.597 C 375.698 1247.310, 375.403 1278.074, 392.119 1295 C 394.563 1297.475, 432.083 1325.600, 475.495 1357.500 C 518.908 1389.400, 593.369 1444.190, 640.964 1479.256 C 692.284 1517.066, 730.349 1544.429, 734.500 1546.495 C 744.625 1551.535, 752.611 1553.279, 765.500 1553.265 C 787.959 1553.240, 809.203 1545.053, 827.807 1529.255 C 830.725 1526.776, 857.708 1496.342, 887.767 1461.624 C 917.827 1426.906, 952.354 1387.025, 964.496 1373 C 976.637 1358.975, 1122.310 1190.814, 1288.215 999.310 C 1454.119 807.805, 1591.681 648.814, 1593.909 645.996 C 1606.133 630.531, 1609.419 610.041, 1602.162 594.532 C 1598.725 587.187, 1591.092 578.540, 1584.132 574.106 C 1580.056 571.510, 1501.145 535.748, 1281.500 436.958 C 1247.400 421.621, 1216.818 408.381, 1213.540 407.536 C 1208.289 406.183, 1185.810 405.417, 1182.500 406.479 M 1256 413.247 C 1256.542 413.816, 1280.216 424.541, 1330.500 446.998 C 1455.284 502.728, 1586.310 561.609, 1590.498 563.839 C 1598.647 568.177, 1610.156 580.293, 1613.925 588.500 C 1615.693 592.350, 1617.552 596.400, 1618.056 597.500 C 1618.560 598.600, 1621.903 610.778, 1625.486 624.563 C 1632.277 650.691, 1633.091 656.975, 1631.067 667.647 C 1629.711 674.795, 1626.507 682.816, 1622.239 689.741 C 1620.183 693.078, 1581.600 738.712, 1536.500 791.148 C 1491.400 843.585, 1410.194 938.015, 1356.042 1000.994 C 1301.890 1063.972, 1210.555 1170.175, 1153.074 1237 C 1095.594 1303.825, 1009.691 1403.725, 962.180 1459 C 914.668 1514.275, 872.128 1563.229, 867.647 1567.787 C 863.166 1572.345, 856.234 1578.337, 852.243 1581.102 C 843.577 1587.105, 826.655 1595.331, 819 1597.260 L 813.500 1598.646 819.500 1600.927 C 832.401 1605.832, 847.434 1607.104, 862.119 1604.532 C 884.635 1600.589, 903.565 1590.385, 921.541 1572.500 C 932.380 1561.717, 1654.031 722.698, 1665.281 707.800 C 1682.425 685.097, 1684.932 670.990, 1677.153 641 C 1668.611 608.070, 1664.506 598.592, 1654.457 588.606 C 1651.077 585.248, 1644.754 580.380, 1640.406 577.790 C 1630.031 571.609, 1295.994 421.946, 1282.484 417.426 C 1275.634 415.133, 1269.245 413.735, 1263.789 413.332 C 1259.230 412.996, 1255.725 412.958, 1256 413.247 M 1019.889 579.597 C 971.275 631.713, 826.538 786.818, 698.250 924.274 C 569.962 1061.731, 465.021 1174.489, 465.047 1174.848 C 465.073 1175.206, 554.660 1237.887, 664.129 1314.139 L 863.164 1452.777 866.917 1448.639 C 868.980 1446.362, 981.992 1316.475, 1118.053 1160 C 1358.281 883.729, 1450.484 777.756, 1504.732 715.570 C 1519.159 699.032, 1530.956 685.275, 1530.946 685 C 1530.926 684.402, 1112.958 486.063, 1110.195 485.341 C 1108.683 484.945, 1089.618 504.844, 1019.889 579.597 M 383.100 1304.034 C 390.407 1313.779, 411.026 1338.691, 414.663 1342.170 C 418.287 1345.637, 744.906 1588.639, 742.250 1585.893 C 741.408 1585.022, 741 1581.099, 741 1573.878 L 741 1563.155 737.250 1561.939 C 727.543 1558.792, 715.435 1550.412, 645 1498.091 C 554.591 1430.933, 552.750 1429.567, 461.500 1362.023 C 421.900 1332.711, 387.295 1306.652, 384.600 1304.114 L 379.701 1299.500 383.100 1304.034" stroke="none" fill="#0d0d0d" fill-rule="evenodd"/><path d="M 1180.235 397.497 C 1159.277 401.296, 1140.046 410.356, 1124.857 423.585 C 1116.874 430.538, 391.741 1204.105, 385.805 1212 C 379.942 1219.799, 371.723 1236.203, 369.522 1244.500 C 367.241 1253.100, 366.507 1267.330, 367.920 1275.561 C 369.389 1284.118, 375.678 1297.453, 380.152 1301.500 C 382.880 1303.967, 383.122 1304.056, 381.515 1302 C 380.441 1300.625, 381.798 1301.576, 384.531 1304.114 C 387.264 1306.652, 421.900 1332.711, 461.500 1362.023 C 552.750 1429.567, 554.591 1430.933, 645 1498.091 C 715.435 1550.412, 727.543 1558.792, 737.250 1561.939 L 741 1563.155 741 1573.992 L 741 1584.830 745.750 1588.289 C 768.602 1604.933, 803.219 1605.988, 834.743 1591 C 848.226 1584.589, 857.698 1577.907, 867.647 1567.787 C 872.128 1563.229, 914.668 1514.275, 962.180 1459 C 1009.691 1403.725, 1095.594 1303.825, 1153.074 1237 C 1210.555 1170.175, 1301.890 1063.972, 1356.042 1000.994 C 1410.194 938.015, 1491.400 843.585, 1536.500 791.148 C 1581.600 738.712, 1620.183 693.078, 1622.239 689.741 C 1626.507 682.816, 1629.711 674.795, 1631.067 667.647 C 1633.091 656.975, 1632.277 650.691, 1625.486 624.563 C 1621.903 610.778, 1618.560 598.600, 1618.056 597.500 C 1617.552 596.400, 1615.693 592.350, 1613.925 588.500 C 1610.156 580.293, 1598.647 568.177, 1590.498 563.839 C 1586.226 561.564, 1507.919 526.370, 1321 442.714 C 1298.175 432.498, 1268.925 419.340, 1256 413.474 C 1229.107 401.267, 1221.864 398.508, 1212.901 397.054 C 1204.362 395.668, 1189.189 395.874, 1180.235 397.497 M 1177.113 407.545 C 1161.447 410.943, 1145.323 418.739, 1134.133 428.324 C 1124.730 436.380, 398.920 1211.753, 394.017 1218.981 C 382.782 1235.545, 378.026 1252.750, 380.105 1269.310 C 381.250 1278.431, 386.192 1288.999, 392.119 1295 C 394.563 1297.475, 432.083 1325.600, 475.495 1357.500 C 518.908 1389.400, 593.369 1444.190, 640.964 1479.256 C 692.284 1517.066, 730.349 1544.429, 734.500 1546.495 C 744.625 1551.535, 752.611 1553.279, 765.500 1553.265 C 787.959 1553.240, 809.203 1545.053, 827.807 1529.255 C 830.725 1526.776, 857.708 1496.342, 887.767 1461.624 C 917.827 1426.906, 952.354 1387.025, 964.496 1373 C 976.637 1358.975, 1122.310 1190.814, 1288.215 999.310 C 1454.119 807.805, 1591.681 648.814, 1593.909 645.996 C 1606.133 630.531, 1609.419 610.041, 1602.162 594.532 C 1598.725 587.187, 1591.092 578.540, 1584.132 574.106 C 1580.056 571.510, 1501.145 535.748, 1281.500 436.958 C 1247.400 421.621, 1216.818 408.381, 1213.540 407.536 C 1206.067 405.610, 1186.009 405.615, 1177.113 407.545 M 1019.889 579.597 C 971.275 631.713, 826.538 786.818, 698.250 924.274 C 569.962 1061.731, 465.021 1174.489, 465.047 1174.848 C 465.073 1175.206, 554.660 1237.887, 664.129 1314.139 L 863.164 1452.777 866.917 1448.639 C 868.980 1446.362, 981.992 1316.475, 1118.053 1160 C 1358.281 883.729, 1450.484 777.756, 1504.732 715.570 C 1519.159 699.032, 1530.956 685.275, 1530.946 685 C 1530.926 684.402, 1112.958 486.063, 1110.195 485.341 C 1108.683 484.945, 1089.618 504.844, 1019.889 579.597" stroke="none" fill="#dbe9ef" fill-rule="evenodd"/></svg>